<?xml version="1.0" encoding="UTF-8"?><svg xmlns="http://www.w3.org/2000/svg" xmlns:xlink="http://www.w3.org/1999/xlink" fill-opacity="1" color-rendering="auto" color-interpolation="auto" text-rendering="auto" stroke="black" stroke-linecap="square" width="584" stroke-miterlimit="10" shape-rendering="auto" stroke-opacity="1" fill="black" stroke-dasharray="none" font-weight="normal" stroke-width="1" height="484" font-family="'Dialog'" font-style="normal" stroke-linejoin="miter" font-size="12px" stroke-dashoffset="0" image-rendering="auto">
  <!--Generated by ySVG 2.5-->
  <defs id="genericDefs"/>
  <g>
    <defs id="defs1">
      <clipPath clipPathUnits="userSpaceOnUse" id="clipPath1">
        <path d="M0 0 L584 0 L584 484 L0 484 L0 0 Z"/>
      </clipPath>
      <clipPath clipPathUnits="userSpaceOnUse" id="clipPath2">
        <path d="M76 -97 L660 -97 L660 387 L76 387 L76 -97 Z"/>
      </clipPath>
      <clipPath clipPathUnits="userSpaceOnUse" id="clipPath3">
        <path d="M76 79.3994 L76 387 L660 387 L660 79.3994 Z"/>
      </clipPath>
      <clipPath clipPathUnits="userSpaceOnUse" id="clipPath4">
        <path d="M76 -97 L76 79.3994 L660 79.3994 L660 -97 Z"/>
      </clipPath>
      <clipPath clipPathUnits="userSpaceOnUse" id="clipPath5">
        <path d="M76 167.2394 L76 387 L660 387 L660 167.2394 Z"/>
      </clipPath>
      <clipPath clipPathUnits="userSpaceOnUse" id="clipPath6">
        <path d="M76 -97 L76 167.2394 L660 167.2394 L660 -97 Z"/>
      </clipPath>
      <clipPath clipPathUnits="userSpaceOnUse" id="clipPath7">
        <path d="M76 225.5419 L76 387 L660 387 L660 225.5419 Z"/>
      </clipPath>
      <clipPath clipPathUnits="userSpaceOnUse" id="clipPath8">
        <path d="M76 -97 L76 225.5419 L660 225.5419 L660 -97 Z"/>
      </clipPath>
      <clipPath clipPathUnits="userSpaceOnUse" id="clipPath9">
        <path d="M76 269.0219 L76 387 L660 387 L660 269.0219 Z"/>
      </clipPath>
      <clipPath clipPathUnits="userSpaceOnUse" id="clipPath10">
        <path d="M76 -97 L76 269.0219 L660 269.0219 L660 -97 Z"/>
      </clipPath>
      <clipPath clipPathUnits="userSpaceOnUse" id="clipPath11">
        <path d="M76 357.8656 L76 387 L660 387 L660 357.8656 Z"/>
      </clipPath>
      <clipPath clipPathUnits="userSpaceOnUse" id="clipPath12">
        <path d="M76 -97 L76 357.8656 L660 357.8656 L660 -97 Z"/>
      </clipPath>
      <clipPath clipPathUnits="userSpaceOnUse" id="clipPath13">
        <path d="M76 -63.0931 L76 387 L660 387 L660 -63.0931 Z"/>
      </clipPath>
      <clipPath clipPathUnits="userSpaceOnUse" id="clipPath14">
        <path d="M76 -97 L76 -63.0931 L660 -63.0931 L660 -97 Z"/>
      </clipPath>
      <clipPath clipPathUnits="userSpaceOnUse" id="clipPath15">
        <path d="M76 -20.2531 L76 387 L660 387 L660 -20.2531 Z"/>
      </clipPath>
      <clipPath clipPathUnits="userSpaceOnUse" id="clipPath16">
        <path d="M76 -97 L76 -20.2531 L660 -20.2531 L660 -97 Z"/>
      </clipPath>
    </defs>
    <g fill="white" text-rendering="geometricPrecision" shape-rendering="geometricPrecision" transform="translate(-76,97)" stroke="white">
      <rect x="76" width="584" height="484" y="-97" clip-path="url(#clipPath2)" stroke="none"/>
    </g>
    <g fill="white" text-rendering="geometricPrecision" shape-rendering="geometricPrecision" transform="matrix(1,0,0,1,-76,97)" stroke="white">
      <rect x="199.4063" y="51.1025" clip-path="url(#clipPath3)" width="334.52" rx="4" ry="4" height="84" stroke="none"/>
      <rect x="199.4063" y="51.1025" clip-path="url(#clipPath4)" fill="rgb(234,234,234)" width="334.52" rx="4" ry="4" height="84" stroke="none"/>
    </g>
    <g text-rendering="geometricPrecision" stroke-miterlimit="1.45" shape-rendering="geometricPrecision" transform="matrix(1,0,0,1,-76,97)" stroke-linecap="butt">
      <rect x="199.4063" y="51.1025" clip-path="url(#clipPath2)" fill="none" width="334.52" rx="4" ry="4" height="84"/>
      <line y2="79.3994" fill="none" x1="199.4063" clip-path="url(#clipPath2)" x2="533.9263" y1="79.3994"/>
      <text x="286.5936" font-size="14px" y="70.0976" clip-path="url(#clipPath2)" font-family="monospace" stroke="none" xml:space="preserve">PATCH /employees/21</text>
      <text x="203.4063" font-size="14px" y="98.3945" clip-path="url(#clipPath2)" font-family="monospace" stroke="none" xml:space="preserve">{"data": </text>
      <text x="203.4063" font-size="14px" y="114.6914" clip-path="url(#clipPath2)" font-family="monospace" stroke="none" xml:space="preserve">{ "status": "retired"}</text>
      <text x="203.4063" font-size="14px" y="130.9882" clip-path="url(#clipPath2)" font-family="monospace" stroke="none" xml:space="preserve">}</text>
    </g>
    <g fill="white" text-rendering="geometricPrecision" shape-rendering="geometricPrecision" transform="matrix(1,0,0,1,-76,97)" stroke="white">
      <rect x="199.4063" y="138.9425" clip-path="url(#clipPath5)" width="334.52" rx="4" ry="4" height="39" stroke="none"/>
      <rect x="199.4063" y="138.9425" clip-path="url(#clipPath6)" fill="rgb(234,234,234)" width="334.52" rx="4" ry="4" height="39" stroke="none"/>
    </g>
    <g text-rendering="geometricPrecision" stroke-miterlimit="1.45" shape-rendering="geometricPrecision" transform="matrix(1,0,0,1,-76,97)" stroke-linecap="butt">
      <rect x="199.4063" y="138.9425" clip-path="url(#clipPath2)" fill="none" width="334.52" rx="4" ry="4" height="39"/>
      <line y2="167.2394" fill="none" x1="199.4063" clip-path="url(#clipPath2)" x2="533.9263" y1="167.2394"/>
      <text x="341.3802" font-size="14px" y="157.9376" clip-path="url(#clipPath2)" font-family="monospace" stroke="none" xml:space="preserve">200 OK</text>
    </g>
    <g fill="white" text-rendering="geometricPrecision" shape-rendering="geometricPrecision" transform="matrix(1,0,0,1,-76,97)" stroke="white">
      <rect x="199.4063" y="197.245" clip-path="url(#clipPath7)" width="334.52" rx="4" ry="4" height="39" stroke="none"/>
      <rect x="199.4063" y="197.245" clip-path="url(#clipPath8)" fill="rgb(234,234,234)" width="334.52" rx="4" ry="4" height="39" stroke="none"/>
    </g>
    <g text-rendering="geometricPrecision" stroke-miterlimit="1.45" shape-rendering="geometricPrecision" transform="matrix(1,0,0,1,-76,97)" stroke-linecap="butt">
      <rect x="199.4063" y="197.245" clip-path="url(#clipPath2)" fill="none" width="334.52" rx="4" ry="4" height="39"/>
      <line y2="225.5419" fill="none" x1="199.4063" clip-path="url(#clipPath2)" x2="533.9263" y1="225.5419"/>
      <text x="295.0223" font-size="14px" y="216.2401" clip-path="url(#clipPath2)" font-family="monospace" stroke="none" xml:space="preserve">GET /employees/21</text>
    </g>
    <g fill="white" text-rendering="geometricPrecision" shape-rendering="geometricPrecision" transform="matrix(1,0,0,1,-76,97)" stroke="white">
      <rect x="199.4063" y="240.725" clip-path="url(#clipPath9)" width="334.52" rx="4" ry="4" height="84" stroke="none"/>
      <rect x="199.4063" y="240.725" clip-path="url(#clipPath10)" fill="rgb(234,234,234)" width="334.52" rx="4" ry="4" height="84" stroke="none"/>
    </g>
    <g text-rendering="geometricPrecision" stroke-miterlimit="1.45" shape-rendering="geometricPrecision" transform="matrix(1,0,0,1,-76,97)" stroke-linecap="butt">
      <rect x="199.4063" y="240.725" clip-path="url(#clipPath2)" fill="none" width="334.52" rx="4" ry="4" height="84"/>
      <line y2="269.0219" fill="none" x1="199.4063" clip-path="url(#clipPath2)" x2="533.9263" y1="269.0219"/>
      <text x="341.3802" font-size="14px" y="259.7201" clip-path="url(#clipPath2)" font-family="monospace" stroke="none" xml:space="preserve">200 OK</text>
      <text x="203.4063" font-size="14px" y="288.017" clip-path="url(#clipPath2)" font-family="monospace" stroke="none" xml:space="preserve">{"data": </text>
      <text x="203.4063" font-size="14px" y="304.3139" clip-path="url(#clipPath2)" font-family="monospace" stroke="none" xml:space="preserve">{"name": "Paul", "status": "retired"}</text>
      <text x="203.4063" font-size="14px" y="320.6107" clip-path="url(#clipPath2)" font-family="monospace" stroke="none" xml:space="preserve">}</text>
    </g>
    <g fill="rgb(234,234,234)" text-rendering="geometricPrecision" shape-rendering="geometricPrecision" transform="matrix(1,0,0,1,-76,97)" stroke="rgb(234,234,234)">
      <rect x="81.6295" y="-91.39" clip-path="url(#clipPath2)" width="87.7768" rx="4" ry="4" height="416.115" stroke="none"/>
    </g>
    <g font-size="15px" stroke-linecap="butt" transform="matrix(1,0,0,1,-76,97)" text-rendering="geometricPrecision" font-family="sans-serif" shape-rendering="geometricPrecision" stroke-miterlimit="1.45">
      <text x="103.8053" xml:space="preserve" y="121.8604" clip-path="url(#clipPath2)" stroke="none">Client</text>
    </g>
    <g stroke-linecap="butt" transform="matrix(1,0,0,1,-76,97)" fill="rgb(234,234,234)" text-rendering="geometricPrecision" shape-rendering="geometricPrecision" stroke="rgb(234,234,234)" stroke-miterlimit="1.45">
      <rect x="81.6295" y="-91.39" clip-path="url(#clipPath2)" fill="none" width="87.7768" rx="4" ry="4" height="416.115"/>
      <rect stroke-linecap="square" x="567.1263" y="-91.39" clip-path="url(#clipPath2)" width="87.7768" rx="4" ry="4" height="416.115" stroke="none" stroke-miterlimit="10"/>
    </g>
    <g font-size="15px" stroke-linecap="butt" transform="matrix(1,0,0,1,-76,97)" text-rendering="geometricPrecision" font-family="sans-serif" shape-rendering="geometricPrecision" stroke-miterlimit="1.45">
      <text x="582.2452" xml:space="preserve" y="113.1299" clip-path="url(#clipPath2)" stroke="none">RESTful</text>
      <text x="583.2963" xml:space="preserve" y="130.5908" clip-path="url(#clipPath2)" stroke="none">Service</text>
    </g>
    <g stroke-linecap="butt" transform="matrix(1,0,0,1,-76,97)" fill="rgb(234,234,234)" text-rendering="geometricPrecision" shape-rendering="geometricPrecision" stroke="rgb(234,234,234)" stroke-miterlimit="1.45">
      <rect x="567.1263" y="-91.39" clip-path="url(#clipPath2)" fill="none" width="87.7768" rx="4" ry="4" height="416.115"/>
    </g>
    <g fill="white" text-rendering="geometricPrecision" shape-rendering="geometricPrecision" transform="matrix(1,0,0,1,-76,97)" stroke="white">
      <rect x="81.6295" y="334.225" clip-path="url(#clipPath11)" width="87.7768" rx="4" ry="4" height="47.4" stroke="none"/>
      <rect x="81.6295" y="334.225" clip-path="url(#clipPath12)" fill="rgb(234,234,234)" width="87.7768" rx="4" ry="4" height="47.4" stroke="none"/>
    </g>
    <g text-rendering="geometricPrecision" stroke-miterlimit="1.45" shape-rendering="geometricPrecision" transform="matrix(1,0,0,1,-76,97)" stroke-linecap="butt">
      <rect x="81.6295" y="334.225" clip-path="url(#clipPath2)" fill="none" width="87.7768" rx="4" ry="4" height="47.4"/>
      <line y2="357.8656" fill="none" x1="81.6295" clip-path="url(#clipPath2)" x2="169.4063" y1="357.8656"/>
      <text x="92.4051" font-size="10px" y="349.5072" clip-path="url(#clipPath2)" font-family="monospace" stroke="none" xml:space="preserve">HTTP Header</text>
      <text x="85.6295" font-size="10px" y="373.1479" clip-path="url(#clipPath2)" font-family="monospace" stroke="none" xml:space="preserve">HTTP Body</text>
    </g>
    <g fill="white" text-rendering="geometricPrecision" shape-rendering="geometricPrecision" transform="matrix(1,0,0,1,-76,97)" stroke="white">
      <rect x="199.4063" y="-91.39" clip-path="url(#clipPath13)" width="334.52" rx="4" ry="4" height="39" stroke="none"/>
      <rect x="199.4063" y="-91.39" clip-path="url(#clipPath14)" fill="rgb(234,234,234)" width="334.52" rx="4" ry="4" height="39" stroke="none"/>
    </g>
    <g text-rendering="geometricPrecision" stroke-miterlimit="1.45" shape-rendering="geometricPrecision" transform="matrix(1,0,0,1,-76,97)" stroke-linecap="butt">
      <rect x="199.4063" y="-91.39" clip-path="url(#clipPath2)" fill="none" width="334.52" rx="4" ry="4" height="39"/>
      <line y2="-63.0931" fill="none" x1="199.4063" clip-path="url(#clipPath2)" x2="533.9263" y1="-63.0931"/>
      <text x="295.0223" font-size="14px" y="-72.3949" clip-path="url(#clipPath2)" font-family="monospace" stroke="none" xml:space="preserve">GET /employees/21</text>
    </g>
    <g fill="white" text-rendering="geometricPrecision" shape-rendering="geometricPrecision" transform="matrix(1,0,0,1,-76,97)" stroke="white">
      <rect x="199.4063" y="-48.55" clip-path="url(#clipPath15)" width="334.52" rx="4" ry="4" height="84" stroke="none"/>
      <rect x="199.4063" y="-48.55" clip-path="url(#clipPath16)" fill="rgb(234,234,234)" width="334.52" rx="4" ry="4" height="84" stroke="none"/>
    </g>
    <g text-rendering="geometricPrecision" stroke-miterlimit="1.45" shape-rendering="geometricPrecision" transform="matrix(1,0,0,1,-76,97)" stroke-linecap="butt">
      <rect x="199.4063" y="-48.55" clip-path="url(#clipPath2)" fill="none" width="334.52" rx="4" ry="4" height="84"/>
      <line y2="-20.2531" fill="none" x1="199.4063" clip-path="url(#clipPath2)" x2="533.9263" y1="-20.2531"/>
      <text x="341.3802" font-size="14px" y="-29.5549" clip-path="url(#clipPath2)" font-family="monospace" stroke="none" xml:space="preserve">200 OK</text>
      <text x="203.4063" font-size="14px" y="-1.258" clip-path="url(#clipPath2)" font-family="monospace" stroke="none" xml:space="preserve">{"data": </text>
      <text x="203.4063" font-size="14px" y="15.0389" clip-path="url(#clipPath2)" font-family="monospace" stroke="none" xml:space="preserve">{"name": "Paul", "status": "employed"}</text>
      <text x="203.4063" font-size="14px" y="31.3357" clip-path="url(#clipPath2)" font-family="monospace" stroke="none" xml:space="preserve">}</text>
    </g>
    <g text-rendering="geometricPrecision" stroke-miterlimit="1.45" shape-rendering="geometricPrecision" transform="matrix(1,0,0,1,-76,97)" stroke-linecap="butt">
      <path fill="none" d="M199.4344 158.4425 L177.4419 158.4425" clip-path="url(#clipPath2)"/>
      <path d="M169.4419 158.4425 L181.4419 163.4425 L178.4419 158.4425 L181.4419 153.4425 Z" clip-path="url(#clipPath2)" stroke="none"/>
      <path fill="none" d="M199.4344 282.725 L177.4419 282.725" clip-path="url(#clipPath2)"/>
      <path d="M169.4419 282.725 L181.4419 287.725 L178.4419 282.725 L181.4419 277.725 Z" clip-path="url(#clipPath2)" stroke="none"/>
      <path fill="none" d="M169.4086 93.1025 L191.4114 93.1025" clip-path="url(#clipPath2)"/>
      <path d="M199.4114 93.1025 L187.4114 88.1025 L190.4114 93.1025 L187.4114 98.1025 Z" clip-path="url(#clipPath2)" stroke="none"/>
      <path fill="none" d="M169.4086 216.745 L191.4114 216.745" clip-path="url(#clipPath2)"/>
      <path d="M199.4114 216.745 L187.4114 211.745 L190.4114 216.745 L187.4114 221.745 Z" clip-path="url(#clipPath2)" stroke="none"/>
      <path fill="none" d="M533.9102 93.1025 L559.154 93.1025" clip-path="url(#clipPath2)"/>
      <path d="M567.154 93.1025 L555.154 88.1025 L558.154 93.1025 L555.154 98.1025 Z" clip-path="url(#clipPath2)" stroke="none"/>
      <path fill="none" d="M533.9102 216.745 L559.154 216.745" clip-path="url(#clipPath2)"/>
      <path d="M567.154 216.745 L555.154 211.745 L558.154 216.745 L555.154 221.745 Z" clip-path="url(#clipPath2)" stroke="none"/>
      <path fill="none" d="M567.1382 158.4425 L541.9057 158.4425" clip-path="url(#clipPath2)"/>
      <path d="M533.9057 158.4425 L545.9057 163.4425 L542.9057 158.4425 L545.9057 153.4425 Z" clip-path="url(#clipPath2)" stroke="none"/>
      <path fill="none" d="M567.1382 282.725 L541.9057 282.725" clip-path="url(#clipPath2)"/>
      <path d="M533.9057 282.725 L545.9057 287.725 L542.9057 282.725 L545.9057 277.725 Z" clip-path="url(#clipPath2)" stroke="none"/>
      <path fill="none" d="M169.4086 -71.89 L191.4114 -71.89" clip-path="url(#clipPath2)"/>
      <path d="M199.4114 -71.89 L187.4114 -76.89 L190.4114 -71.89 L187.4114 -66.89 Z" clip-path="url(#clipPath2)" stroke="none"/>
      <path fill="none" d="M533.9102 -71.89 L559.154 -71.89" clip-path="url(#clipPath2)"/>
      <path d="M567.154 -71.89 L555.154 -76.89 L558.154 -71.89 L555.154 -66.89 Z" clip-path="url(#clipPath2)" stroke="none"/>
      <path fill="none" d="M567.1382 -6.55 L541.9057 -6.55" clip-path="url(#clipPath2)"/>
      <path d="M533.9057 -6.55 L545.9057 -1.55 L542.9057 -6.55 L545.9057 -11.55 Z" clip-path="url(#clipPath2)" stroke="none"/>
      <path fill="none" d="M199.4344 -6.55 L177.4419 -6.55" clip-path="url(#clipPath2)"/>
      <path d="M169.4419 -6.55 L181.4419 -1.55 L178.4419 -6.55 L181.4419 -11.55 Z" clip-path="url(#clipPath2)" stroke="none"/>
    </g>
  </g>
</svg>
